<svg width="199" height="317" xmlns="http://www.w3.org/2000/svg" xmlns:xlink="http://www.w3.org/1999/xlink" overflow="hidden"><defs><clipPath id="clip0"><rect x="568" y="82" width="199" height="317"/></clipPath></defs><g clip-path="url(#clip0)" transform="translate(-568 -82)"><path d="M151.892 132.226 94.5356 132.226C103.305 132.226 110.261 124.145 108.365 115.062 106.988 108.447 100.83 103.905 94.0787 103.905L74.3232 103.905 54.1382 103.905 47.2098 103.905C47.2098 103.905 24.6108 104.764 12.6497 129.437 11.961 130.875 11.2723 132.342 10.6653 133.951 7.93081 141.023 6.83973 148.612 6.83973 156.175L6.83973 158.65C6.83973 166.213 7.95809 173.803 10.6653 180.874 21.8762 209.972 47.2098 210.893 47.2098 210.893L63.1669 210.893 74.3232 210.893 151.927 210.893C170.932 210.893 186.487 195.338 186.487 176.333L186.487 166.758C186.453 147.78 170.898 132.226 151.892 132.226Z" fill="#FFFFFF" transform="matrix(1 0 0 1.00247 568 82.0287)"/><path d="M190.189 64.0602C190.162 64.0602 190.162 64.033 190.189 64.0602 188.982 29.3024 166.813 5.14855 97.727 5.14855 26.6838 5.14855 5.23038 30.6799 5.23038 67.0198 5.23038 103.36 44.7344 103.592 44.7344 103.592L97.6929 103.592 106.292 103.592C112.702 119.003 127.943 129.9 145.598 129.9 149.219 129.9 152.697 129.382 156.066 128.55 159.605 127.773 163.826 126.191 168.259 123.286 172.309 120.728 175.91 117.51 178.869 113.739 178.924 113.684 178.985 113.623 179.013 113.568 179.129 113.425 179.217 113.282 179.299 113.139 181.884 109.743 183.984 105.978 185.477 101.928 185.682 101.437 185.852 100.918 186.023 100.407 186.077 100.236 186.139 100.093 186.193 99.916 189.419 90.7372 190.449 83.6111 190.189 64.0602Z" fill="#00AEEF" transform="matrix(1 0 0 1.00247 568 82.0287)"/><path d="M51.6969 103.592 51.6969 67.5381 108.74 67.5381 126.136 40.7724C127.95 38.0106 130.998 36.3467 134.299 36.3467L182 36.3467" fill="#00AEEF" transform="matrix(1 0 0 1.00247 568 82.0287)"/><path d="M106.326 103.592 142.611 103.592 159.4 85.5682 189.528 85.5682" fill="#00AEEF" transform="matrix(1 0 0 1.00247 568 82.0287)"/><path d="M93.2399 36.1421C93.2399 40.349 89.8296 43.7593 85.6228 43.7593 81.416 43.7593 78.0057 40.349 78.0057 36.1421 78.0057 31.9353 81.416 28.525 85.6228 28.525 89.8296 28.525 93.2399 31.9353 93.2399 36.1421Z" fill="#5DCAE8" transform="matrix(1 0 0 1.00247 568 82.0287)"/><path d="M152.499 216.014 47.8167 216.014C46.4665 215.96 18.8076 214.602 6.49877 182.722 3.73696 175.535 2.33219 167.427 2.33219 158.657L2.33219 156.182C2.33219 147.385 3.74378 139.304 6.49877 132.117 7.16024 130.391 7.91036 128.782 8.65366 127.227 21.7944 100.114 46.5756 98.8522 47.6122 98.8181L94.6788 98.8181C104.021 98.8181 112.157 105.228 113.998 114.059 114.946 118.574 114.284 123.177 112.157 127.139L152.493 127.139C174.376 127.139 192.167 144.937 192.167 166.813L192.167 176.387C192.174 198.216 174.376 216.014 152.499 216.014ZM47.8167 109.054C47.2439 109.081 28.2659 110.261 17.8869 131.68 17.2528 133.003 16.6527 134.326 16.073 135.792 13.7408 141.8 12.5952 148.646 12.5952 156.175L12.5952 158.65C12.5952 166.186 13.7749 173.025 16.073 179.033 25.8791 204.421 47.128 205.744 48.0418 205.772L152.527 205.772C168.743 205.772 181.938 192.576 181.938 176.36L181.938 166.786C181.938 150.57 168.743 137.374 152.527 137.374L95.1698 137.374C92.3534 137.374 90.0553 135.076 90.0553 132.26 90.0553 129.416 92.3534 127.145 95.1698 127.145 97.8702 127.145 100.434 125.911 102.187 123.783 103.939 121.629 104.574 118.921 104.001 116.166 103.141 112.082 99.2272 109.095 94.7129 109.095L47.8167 109.095 47.8167 109.054Z" fill="#3A5057" transform="matrix(1 0 0 1.00247 568 82.0287)"/><path d="M95.1425 137.347 56.7841 137.347C53.9677 137.347 51.6696 135.049 51.6696 132.233 51.6696 129.389 53.9677 127.118 56.7841 127.118L95.1357 127.118C97.952 127.118 100.25 129.416 100.25 132.233 100.284 135.049 97.9861 137.347 95.1425 137.347Z" fill="#3A5057" transform="matrix(1 0 0 1.00247 568 82.0287)"/><path d="M182.313 157.014 104.226 157.014C101.409 157.014 99.1113 154.716 99.1113 151.899 99.1113 149.056 101.409 146.785 104.226 146.785L182.313 146.785C185.13 146.785 187.428 149.083 187.428 151.899 187.462 154.716 185.164 157.014 182.313 157.014Z" fill="#3A5057" transform="matrix(1 0 0 1.00247 568 82.0287)"/><path d="M184.87 176.681 104.226 176.681C101.409 176.681 99.1113 174.382 99.1113 171.566 99.1113 168.722 101.409 166.452 104.226 166.452L184.87 166.452C187.687 166.452 189.985 168.75 189.985 171.566 190.019 174.376 187.721 176.681 184.87 176.681Z" fill="#3A5057" transform="matrix(1 0 0 1.00247 568 82.0287)"/><path d="M182.313 196.347 104.226 196.347C101.409 196.347 99.1113 194.049 99.1113 191.233 99.1113 188.389 101.409 186.118 104.226 186.118L182.313 186.118C185.13 186.118 187.428 188.416 187.428 191.233 187.462 194.042 185.164 196.347 182.313 196.347Z" fill="#3A5057" transform="matrix(1 0 0 1.00247 568 82.0287)"/><path d="M145.51 135.049C127.37 135.049 111.011 124.813 102.93 108.74L44.6526 108.74C29.1797 108.651 0 99.8 0 67.0198 0 21.9376 31.9415 0 97.6111 0 161.555 0 193.47 20.7306 195.168 63.3715 195.195 63.5761 195.195 63.7738 195.222 63.9784 195.509 83.1542 194.588 91.235 191.021 101.614 191.021 101.641 190.906 101.962 190.878 101.989L185.907 100.693 190.735 102.419C190.565 102.91 190.387 103.367 190.217 103.858 188.607 108.256 186.275 112.484 183.343 116.31L183.138 116.596C183.05 116.739 182.934 116.855 182.852 116.971 182.797 117.026 182.681 117.176 182.62 117.23 179.517 121.172 175.521 124.765 170.946 127.636 166.52 130.541 161.828 132.553 157.089 133.59 153.304 134.531 149.363 135.049 145.51 135.049ZM97.6383 98.4771 106.237 98.4771C108.311 98.4771 110.179 99.7114 110.984 101.641 116.848 115.703 130.419 124.813 145.544 124.813 148.503 124.813 151.613 124.411 154.743 123.606 158.453 122.801 161.958 121.274 165.408 119.003 169.057 116.671 172.193 113.855 174.812 110.581 174.839 110.527 174.901 110.465 174.955 110.411L175.098 110.179C177.512 107.015 179.326 103.707 180.649 100.175 180.854 99.6841 180.963 99.3159 181.106 98.9408L181.311 98.4226C184.27 89.8576 185.28 83.4406 185.02 64.6126 185.02 64.4967 184.993 64.3535 184.993 64.2375 184.216 41.0929 174.301 10.2971 97.6724 10.2971 56.9887 10.2971 10.2971 16.7345 10.2971 67.0539 10.2971 97.9316 43.3024 98.5112 44.714 98.5112L97.6452 98.5112 97.6452 98.4771Z" fill="#3A5057" transform="matrix(1 0 0 1.00247 568 82.0287)"/><path d="M51.6082 108.74C48.7919 108.74 46.4938 106.442 46.4938 103.626L46.4938 67.5381C46.4938 64.6944 48.7919 62.4236 51.6082 62.4236L105.862 62.4236 121.731 37.9833C124.493 33.7554 129.15 31.2254 134.21 31.2254L181.911 31.2254C184.727 31.2254 187.025 33.5235 187.025 36.3399 187.025 39.1835 184.727 41.4544 181.911 41.4544L134.21 41.4544C132.655 41.4544 131.189 42.2318 130.357 43.5547L112.961 70.3203C112.013 71.7865 110.404 72.6525 108.651 72.6525L56.7568 72.6525 56.7568 103.592C56.7568 106.442 54.4587 108.74 51.6082 108.74Z" fill="#3A5057" transform="matrix(1 0 0 1.00247 568 82.0287)"/><path d="M142.523 108.74 106.21 108.74C103.394 108.74 101.096 106.442 101.096 103.626 101.096 100.782 103.394 98.5112 106.21 98.5112L140.279 98.5112 155.548 82.1245C156.523 81.088 157.88 80.4879 159.312 80.4879L189.446 80.4879C192.263 80.4879 194.561 82.786 194.561 85.6023 194.561 88.446 192.263 90.7168 189.446 90.7168L161.528 90.7168 146.26 107.103C145.312 108.133 143.962 108.74 142.523 108.74Z" fill="#3A5057" transform="matrix(1 0 0 1.00247 568 82.0287)"/><path d="M77.917 41.4612 12.5611 41.4612C9.71746 41.4612 7.44665 39.1631 7.44665 36.3467 7.44665 33.5031 9.74474 31.2323 12.5611 31.2323L77.917 31.2323C80.7334 31.2323 83.0315 33.5304 83.0315 36.3467 83.0656 39.1631 80.7606 41.4612 77.917 41.4612Z" fill="#3A5057" transform="matrix(1 0 0 1.00247 568 82.0287)"/><path d="M85.5341 48.8805C78.5171 48.8805 72.7957 43.1592 72.7957 36.1421 72.7957 29.1251 78.5171 23.4037 85.5341 23.4037 92.5512 23.4037 98.2725 29.1251 98.2725 36.1421 98.2725 43.1592 92.5512 48.8805 85.5341 48.8805ZM85.5341 33.6667C84.1566 33.6667 83.0587 34.7851 83.0587 36.1421 83.0587 37.5196 84.1771 38.6175 85.5341 38.6175 86.9116 38.6175 88.0095 37.4992 88.0095 36.1421 88.0095 34.7851 86.8843 33.6667 85.5341 33.6667Z" fill="#3A5057" transform="matrix(1 0 0 1.00247 568 82.0287)"/><path d="M6.81245 274.892C6.00778 274.892 5.34631 274.605 4.80077 274.06 4.2825 273.514 3.99609 272.825 3.99609 272.021L3.99609 234.815C3.99609 233.983 4.25523 233.294 4.80077 232.742 5.34631 232.189 6.00778 231.937 6.81245 231.937 7.70578 231.937 8.4218 232.285 8.99462 232.974L32.9439 264.861 32.9439 234.788C32.9439 233.956 33.2303 233.267 33.7759 232.714 34.3214 232.196 35.0101 231.91 35.8148 231.91 36.6468 231.91 37.3355 232.169 37.8538 232.714 38.372 233.233 38.6312 233.921 38.6312 234.788L38.6312 271.993C38.6312 272.798 38.372 273.487 37.8538 274.032 37.3355 274.578 36.674 274.864 35.8148 274.864 35.4398 274.864 35.0647 274.776 34.6351 274.605 34.2055 274.435 33.885 274.203 33.6258 273.855L9.67655 241.968 9.67655 271.987C9.67655 272.791 9.41741 273.48 8.87187 274.026 8.33997 274.605 7.65122 274.892 6.81245 274.892Z" fill="#FFFFFF" transform="matrix(1 0 0 1.00247 568 82.0287)"/><path d="M64.3466 275.096C61.6735 275.096 59.2868 274.435 57.1591 273.085 55.0315 271.762 53.3608 269.92 52.1265 267.65 50.8922 265.352 50.2853 262.76 50.2853 259.855 50.2853 256.95 50.9468 254.366 52.297 252.061 53.6199 249.763 55.4611 247.921 57.732 246.599 60.0301 245.248 62.5941 244.587 65.465 244.587 68.3086 244.587 70.9 245.248 73.1708 246.599 75.4416 247.921 77.2555 249.763 78.5785 252.061 79.9014 254.359 80.5902 256.977 80.5902 259.855L78.4353 259.855C78.4353 262.76 77.8283 265.345 76.5941 267.65 75.3598 269.948 73.689 271.762 71.5614 273.085 69.4338 274.435 67.0198 275.096 64.3466 275.096ZM65.465 270.152C67.3335 270.152 69.0042 269.695 70.4704 268.802 71.9365 267.909 73.089 266.674 73.9209 265.12 74.7529 263.565 75.1893 261.812 75.1893 259.855 75.1893 257.871 74.7597 256.118 73.9209 254.563 73.089 253.009 71.9365 251.774 70.4704 250.881 69.0042 249.988 67.3335 249.531 65.465 249.531 63.6238 249.531 61.9872 249.988 60.4938 250.881 59.0003 251.774 57.8479 253.009 56.9887 254.563 56.1294 256.118 55.693 257.898 55.693 259.855 55.693 261.812 56.1226 263.538 56.9887 265.12 57.8479 266.674 59.0276 267.909 60.4938 268.802 61.9599 269.723 63.6306 270.152 65.465 270.152ZM77.7738 274.926C76.9691 274.926 76.3077 274.667 75.7621 274.121 75.2438 273.603 74.9574 272.914 74.9574 272.109L74.9574 263.715 75.994 257.878 80.5629 259.862 80.5629 272.109C80.5629 272.914 80.3037 273.576 79.7582 274.121 79.2399 274.667 78.5785 274.926 77.7738 274.926Z" fill="#FFFFFF" transform="matrix(1 0 0 1.00247 568 82.0287)"/><path d="M104.198 275.096C101.525 275.096 99.1386 274.435 97.011 273.085 94.8834 271.762 93.2126 269.92 91.9783 267.65 90.7441 265.352 90.1371 262.76 90.1371 259.855 90.1371 256.95 90.7986 254.366 92.1488 252.061 93.4718 249.763 95.313 247.921 97.5838 246.599 99.8819 245.248 102.446 244.587 105.317 244.587 108.16 244.587 110.752 245.248 113.023 246.599 115.293 247.921 117.107 249.763 118.43 252.061 119.753 254.359 120.442 256.977 120.442 259.855L118.287 259.855C118.287 262.76 117.68 265.345 116.446 267.65 115.212 269.948 113.541 271.762 111.413 273.085 109.286 274.435 106.872 275.096 104.198 275.096ZM105.317 270.152C107.185 270.152 108.856 269.695 110.322 268.802 111.788 267.909 112.941 266.674 113.773 265.12 114.605 263.565 115.041 261.812 115.041 259.855 115.041 257.871 114.612 256.118 113.773 254.563 112.934 253.009 111.788 251.774 110.322 250.881 108.856 249.988 107.185 249.531 105.317 249.531 103.476 249.531 101.839 249.988 100.346 250.881 98.8522 251.774 97.6997 253.009 96.8405 254.563 95.9813 256.118 95.5448 257.898 95.5448 259.855 95.5448 261.812 95.9744 263.538 96.8405 265.12 97.6997 266.674 98.8794 267.909 100.346 268.802 101.812 269.723 103.476 270.152 105.317 270.152ZM117.626 274.926C116.821 274.926 116.159 274.667 115.614 274.121 115.096 273.603 114.809 272.914 114.809 272.109L114.809 263.715 115.846 257.878 120.415 259.862 120.415 272.109C120.415 272.914 120.156 273.576 119.61 274.121 119.092 274.667 118.43 274.926 117.626 274.926Z" fill="#FFFFFF" transform="matrix(1 0 0 1.00247 568 82.0287)"/><path d="M130.248 250.656C129.471 250.656 128.871 250.424 128.38 249.995 127.889 249.565 127.664 249.019 127.664 248.358 127.664 247.642 127.895 247.035 128.38 246.605 128.871 246.176 129.471 245.944 130.248 245.944L142.925 245.944C143.703 245.944 144.303 246.176 144.794 246.605 145.25 247.035 145.51 247.642 145.51 248.358 145.51 249.019 145.278 249.565 144.794 249.995 144.303 250.424 143.703 250.656 142.925 250.656L130.248 250.656ZM142.461 274.892C140.62 274.892 138.984 274.435 137.517 273.48 136.051 272.559 134.899 271.264 134.067 269.654 133.235 268.045 132.799 266.231 132.799 264.22L132.799 237.999C132.799 237.195 133.058 236.533 133.576 236.015 134.094 235.497 134.756 235.238 135.56 235.238 136.365 235.238 137.026 235.497 137.545 236.015 138.063 236.533 138.322 237.195 138.322 237.999L138.322 264.22C138.322 265.686 138.724 266.92 139.529 267.902 140.334 268.877 141.309 269.395 142.489 269.395L144.357 269.395C145.019 269.395 145.564 269.654 146.028 270.173 146.485 270.691 146.717 271.352 146.717 272.157 146.717 272.962 146.43 273.623 145.823 274.142 145.216 274.66 144.446 274.919 143.491 274.919L142.455 274.919 142.455 274.892Z" fill="#FFFFFF" transform="matrix(1 0 0 1.00247 568 82.0287)"/><path d="M159.66 239.936C158.684 239.936 157.818 239.588 157.102 238.872 156.386 238.156 156.039 237.317 156.039 236.315 156.039 235.313 156.386 234.474 157.102 233.758 157.818 233.042 158.657 232.694 159.66 232.694 160.662 232.694 161.501 233.042 162.217 233.758 162.933 234.474 163.281 235.313 163.281 236.315 163.281 237.317 162.933 238.156 162.217 238.872 161.501 239.561 160.635 239.936 159.66 239.936ZM159.66 274.892C158.855 274.892 158.193 274.633 157.648 274.087 157.13 273.569 156.843 272.88 156.843 272.075L156.843 247.608C156.843 246.776 157.102 246.087 157.648 245.569 158.166 245.051 158.855 244.791 159.66 244.791 160.492 244.791 161.18 245.051 161.699 245.569 162.217 246.087 162.476 246.749 162.476 247.608L162.476 272.075C162.476 272.88 162.217 273.541 161.699 274.087 161.18 274.605 160.492 274.892 159.66 274.892Z" fill="#FFFFFF" transform="matrix(1 0 0 1.00247 568 82.0287)"/><path d="M178.344 274.892C177.54 274.892 176.878 274.633 176.387 274.142 175.896 273.651 175.637 272.989 175.637 272.184L175.637 234.637C175.637 233.833 175.896 233.171 176.387 232.68 176.878 232.189 177.54 231.93 178.344 231.93 179.149 231.93 179.811 232.189 180.302 232.68 180.793 233.171 181.052 233.833 181.052 234.637L181.052 272.184C181.052 272.989 180.793 273.651 180.302 274.142 179.783 274.633 179.149 274.892 178.344 274.892ZM180.936 263.885 177.54 260.148 194.417 245.085C194.963 244.566 195.57 244.335 196.259 244.369 196.947 244.403 197.527 244.682 197.984 245.262 198.502 245.807 198.734 246.414 198.7 247.076 198.673 247.737 198.386 248.31 197.807 248.828L180.936 263.885ZM197.957 274.605C197.384 275.062 196.722 275.294 196 275.239 195.283 275.185 194.677 274.864 194.22 274.292L183.063 260.489 186.916 256.868 198.359 270.93C198.816 271.503 199.048 272.137 198.993 272.825 198.932 273.487 198.591 274.087 197.957 274.605Z" fill="#FFFFFF" transform="matrix(1 0 0 1.00247 568 82.0287)"/><path d="M16.9663 315.896C16.5095 315.896 16.189 315.691 15.9298 315.323 15.698 314.948 15.6707 314.518 15.8753 314.089L22.6059 298.016C22.8377 297.443 23.2401 297.184 23.7856 297.184 24.3584 297.184 24.7608 297.47 24.9654 298.016L31.7233 314.116C31.8937 314.573 31.8665 314.975 31.6346 315.323 31.4027 315.671 31.0618 315.869 30.5981 315.869 30.3662 315.869 30.1412 315.814 29.9093 315.664 29.7048 315.521 29.5343 315.35 29.4524 315.091L23.5265 300.341 24.188 300.341 18.1529 315.091C18.037 315.35 17.8665 315.521 17.6619 315.664 17.396 315.807 17.1914 315.896 16.9663 315.896ZM18.2279 311.757 19.1758 309.684 28.5455 309.684 29.4934 311.757 18.2279 311.757Z" stroke="#3A5158" stroke-width="0.0681927" stroke-miterlimit="10" fill="#3A5158" transform="matrix(1 0 0 1.00247 568 82.0287)"/><path d="M36.9741 315.896C36.6263 315.896 36.3399 315.78 36.0808 315.521 35.8489 315.289 35.733 314.975 35.733 314.628L35.733 298.411C35.733 298.036 35.8489 297.75 36.0808 297.518 36.3126 297.286 36.6263 297.17 36.9741 297.17 37.3492 297.17 37.6356 297.286 37.8674 297.518 38.0993 297.75 38.2152 298.036 38.2152 298.411L38.2152 314.628C38.2152 314.975 38.0993 315.289 37.8674 315.521 37.6356 315.753 37.3492 315.896 36.9741 315.896Z" stroke="#3A5158" stroke-width="0.0681927" stroke-miterlimit="10" fill="#3A5158" transform="matrix(1 0 0 1.00247 568 82.0287)"/><path d="M58.3389 316.128C57.3023 316.128 56.3545 315.957 55.4066 315.637 54.486 315.323 53.6813 314.859 52.9926 314.287 52.3038 313.714 51.8128 313.052 51.4991 312.302 51.3287 311.954 51.3559 311.641 51.4991 311.354 51.6696 311.068 51.956 310.897 52.3584 310.809 52.6448 310.754 52.9312 310.781 53.2176 310.952 53.504 311.095 53.7086 311.327 53.8518 311.641 54.0564 312.043 54.3701 312.418 54.7997 312.732 55.2293 313.08 55.7748 313.339 56.3817 313.536 57.0159 313.741 57.6501 313.85 58.3389 313.85 59.1163 313.85 59.805 313.734 60.4665 313.475 61.128 313.243 61.6462 312.902 62.0486 312.439 62.4509 311.982 62.6555 311.429 62.6555 310.741 62.6555 309.909 62.3418 309.131 61.6462 308.47 60.9847 307.808 59.8937 307.379 58.3661 307.235 56.3817 307.031 54.827 306.458 53.7086 305.483 52.5902 304.508 52.0106 303.301 52.0106 301.862 52.0106 300.798 52.297 299.905 52.9039 299.189 53.5108 298.439 54.2814 297.893 55.3179 297.518 56.3272 297.143 57.4455 296.945 58.7139 296.945 59.6891 296.945 60.5279 297.088 61.2712 297.348 61.9872 297.607 62.6214 298.009 63.1669 298.466 63.7125 298.957 64.1762 299.502 64.5785 300.164 64.8104 300.512 64.8922 300.853 64.8649 301.139 64.8376 301.453 64.6603 301.685 64.408 301.855 64.0943 302.06 63.7738 302.087 63.4329 301.971 63.0851 301.855 62.826 301.657 62.6282 301.337 62.3691 300.88 62.0554 300.478 61.7076 300.157 61.3325 299.843 60.9029 299.584 60.4119 299.407 59.9209 299.23 59.3208 299.121 58.6594 299.121 57.4796 299.093 56.5045 299.325 55.6998 299.782 54.8951 300.239 54.4928 300.934 54.4928 301.882 54.4928 302.373 54.6087 302.83 54.8679 303.26 55.127 303.689 55.5839 304.065 56.2454 304.378 56.9068 304.692 57.8547 304.924 59.1231 305.04 61.0188 305.244 62.485 305.817 63.5488 306.765 64.6126 307.74 65.1309 309.009 65.1309 310.591 65.1309 311.511 64.9263 312.289 64.558 312.95 64.183 313.612 63.6988 314.184 63.0646 314.648 62.4304 315.105 61.7144 315.453 60.9097 315.657 60.0369 316.012 59.1981 316.128 58.3389 316.128Z" stroke="#3A5158" stroke-width="0.0681927" stroke-miterlimit="10" fill="#3A5158" transform="matrix(1 0 0 1.00247 568 82.0287)"/><path d="M75.7621 315.978C74.4664 315.978 73.3208 315.691 72.3388 315.119 71.3637 314.546 70.5863 313.768 70.0067 312.759 69.4338 311.75 69.1474 310.604 69.1474 309.309 69.1474 307.986 69.4338 306.833 70.0067 305.858 70.5795 304.849 71.3569 304.078 72.3388 303.499 73.314 302.926 74.4664 302.639 75.7621 302.639 77.0305 302.639 78.1761 302.926 79.1581 303.499 80.1333 304.071 80.9107 304.849 81.4903 305.858 82.0631 306.867 82.3495 308.013 82.3495 309.309 82.3495 310.604 82.0631 311.75 81.5176 312.759 80.972 313.768 80.1946 314.539 79.1854 315.119 78.2034 315.691 77.0578 315.978 75.7621 315.978ZM75.7621 313.823C76.5941 313.823 77.3169 313.618 77.9784 313.25 78.6126 312.875 79.1308 312.329 79.4718 311.668 79.8469 311.007 80.0173 310.229 80.0173 309.336 80.0173 308.443 79.8469 307.665 79.4718 307.004 79.124 306.315 78.6126 305.797 77.9784 305.422 77.3442 305.046 76.6009 304.849 75.7621 304.849 74.9233 304.849 74.2073 305.053 73.5458 305.422 72.9117 305.797 72.3934 306.342 72.0524 307.004 71.7046 307.665 71.5069 308.47 71.5069 309.336 71.5069 310.229 71.6774 310.972 72.0524 311.668 72.4275 312.329 72.9117 312.875 73.5458 313.25 74.2073 313.625 74.9574 313.823 75.7621 313.823Z" stroke="#3A5158" stroke-width="0.0681927" stroke-miterlimit="10" fill="#3A5158" transform="matrix(1 0 0 1.00247 568 82.0287)"/><path d="M90.3076 315.896C89.6189 315.896 88.9847 315.691 88.4391 315.323 87.8936 314.948 87.464 314.43 87.1708 313.741 86.8571 313.08 86.7139 312.329 86.7139 311.47L86.7139 298.391C86.7139 298.043 86.8298 297.757 87.0616 297.532 87.2935 297.3 87.5799 297.184 87.9209 297.184 88.2687 297.184 88.5551 297.3 88.7801 297.532 89.0051 297.764 89.1279 298.05 89.1279 298.391L89.1279 311.47C89.1279 312.077 89.2438 312.534 89.4757 312.936 89.7075 313.311 89.9939 313.509 90.3349 313.509L90.9418 313.509C91.2555 313.509 91.5146 313.625 91.7192 313.857 91.9238 314.089 92.0056 314.375 92.0056 314.716 92.0056 315.064 91.8624 315.35 91.5487 315.575 91.235 315.807 90.86 315.923 90.369 315.923L90.3144 315.923 90.3144 315.896Z" stroke="#3A5158" stroke-width="0.0681927" stroke-miterlimit="10" fill="#3A5158" transform="matrix(1 0 0 1.00247 568 82.0287)"/><path d="M101.089 316.012C99.9978 316.012 98.9886 315.78 98.1293 315.296 97.2701 314.839 96.5745 314.143 96.0563 313.223 95.5653 312.302 95.3061 311.211 95.3061 309.888L95.3061 303.996C95.3061 303.649 95.4221 303.362 95.6539 303.137 95.8858 302.905 96.1722 302.789 96.5132 302.789 96.8541 302.789 97.1474 302.905 97.3724 303.137 97.6042 303.369 97.7202 303.655 97.7202 303.996L97.7202 309.888C97.7202 310.781 97.8907 311.525 98.2112 312.104 98.5589 312.677 99.0158 313.114 99.5886 313.4 100.161 313.687 100.796 313.83 101.512 313.83 102.2 313.83 102.807 313.687 103.353 313.427 103.898 313.141 104.301 312.793 104.621 312.336 104.942 311.879 105.112 311.361 105.112 310.781L106.606 310.781C106.606 311.757 106.374 312.677 105.89 313.455 105.399 314.259 104.737 314.894 103.905 315.35 103.101 315.78 102.153 316.012 101.089 316.012ZM106.353 315.896C106.006 315.896 105.719 315.78 105.494 315.548 105.262 315.316 105.146 315.03 105.146 314.689L105.146 304.024C105.146 303.649 105.262 303.362 105.494 303.13 105.726 302.898 106.012 302.783 106.353 302.783 106.728 302.783 107.015 302.898 107.247 303.13 107.479 303.362 107.594 303.649 107.594 304.024L107.594 314.689C107.594 315.037 107.479 315.323 107.247 315.548 107.015 315.753 106.728 315.896 106.353 315.896Z" stroke="#3A5158" stroke-width="0.0681927" stroke-miterlimit="10" fill="#3A5158" transform="matrix(1 0 0 1.00247 568 82.0287)"/><path d="M112.532 305.312C112.184 305.312 111.925 305.224 111.727 305.026 111.529 304.828 111.413 304.596 111.413 304.31 111.413 303.996 111.529 303.737 111.727 303.533 111.925 303.328 112.218 303.246 112.532 303.246L118.055 303.246C118.403 303.246 118.662 303.335 118.86 303.533 119.058 303.73 119.174 303.99 119.174 304.31 119.174 304.596 119.058 304.828 118.86 305.026 118.662 305.224 118.369 305.312 118.055 305.312L112.532 305.312ZM117.851 315.896C117.046 315.896 116.33 315.691 115.696 315.289 115.062 314.887 114.543 314.341 114.202 313.618 113.855 312.902 113.657 312.125 113.657 311.259L113.657 299.843C113.657 299.496 113.773 299.209 114.005 298.984 114.236 298.752 114.523 298.636 114.864 298.636 115.205 298.636 115.498 298.752 115.723 298.984 115.955 299.216 116.071 299.502 116.071 299.843L116.071 311.259C116.071 311.893 116.241 312.439 116.589 312.868 116.937 313.298 117.366 313.502 117.885 313.502L118.689 313.502C118.976 313.502 119.208 313.618 119.405 313.85 119.603 314.082 119.692 314.368 119.692 314.709 119.692 315.057 119.549 315.344 119.29 315.569 119.03 315.801 118.683 315.916 118.28 315.916L117.851 315.916 117.851 315.896Z" stroke="#3A5158" stroke-width="0.0681927" stroke-miterlimit="10" fill="#3A5158" transform="matrix(1 0 0 1.00247 568 82.0287)"/><path d="M125.359 300.655C124.929 300.655 124.554 300.512 124.24 300.198 123.927 299.884 123.783 299.509 123.783 299.08 123.783 298.65 123.927 298.275 124.24 297.961 124.554 297.648 124.929 297.504 125.359 297.504 125.788 297.504 126.163 297.648 126.477 297.961 126.791 298.275 126.934 298.65 126.934 299.08 126.934 299.509 126.791 299.884 126.477 300.198 126.163 300.512 125.788 300.655 125.359 300.655ZM125.359 315.896C125.011 315.896 124.724 315.78 124.499 315.548 124.268 315.316 124.152 315.03 124.152 314.689L124.152 304.051C124.152 303.676 124.268 303.389 124.499 303.158 124.731 302.926 125.018 302.81 125.359 302.81 125.734 302.81 126.02 302.926 126.252 303.158 126.484 303.389 126.6 303.676 126.6 304.051L126.6 314.689C126.6 315.037 126.484 315.323 126.252 315.548 126.02 315.753 125.7 315.896 125.359 315.896Z" stroke="#3A5158" stroke-width="0.0681927" stroke-miterlimit="10" fill="#3A5158" transform="matrix(1 0 0 1.00247 568 82.0287)"/><path d="M138.24 315.978C136.945 315.978 135.799 315.691 134.817 315.119 133.842 314.546 133.037 313.768 132.485 312.759 131.912 311.75 131.626 310.604 131.626 309.309 131.626 307.986 131.912 306.833 132.485 305.858 133.058 304.849 133.835 304.078 134.817 303.499 135.792 302.926 136.945 302.639 138.24 302.639 139.509 302.639 140.654 302.926 141.636 303.499 142.618 304.071 143.416 304.849 143.968 305.858 144.541 306.867 144.828 308.013 144.828 309.309 144.828 310.604 144.541 311.75 143.996 312.759 143.45 313.768 142.673 314.539 141.664 315.119 140.682 315.691 139.529 315.978 138.24 315.978ZM138.24 313.823C139.072 313.823 139.795 313.618 140.457 313.25 141.091 312.875 141.575 312.329 141.95 311.668 142.325 311.007 142.496 310.229 142.496 309.336 142.496 308.443 142.325 307.665 141.95 307.004 141.575 306.315 141.091 305.797 140.457 305.422 139.822 305.046 139.079 304.849 138.24 304.849 137.408 304.849 136.685 305.053 136.024 305.422 135.39 305.797 134.872 306.342 134.531 307.004 134.156 307.692 133.985 308.47 133.985 309.336 133.985 310.229 134.156 310.972 134.531 311.668 134.906 312.329 135.39 312.875 136.024 313.25 136.685 313.625 137.436 313.823 138.24 313.823Z" stroke="#3A5158" stroke-width="0.0681927" stroke-miterlimit="10" fill="#3A5158" transform="matrix(1 0 0 1.00247 568 82.0287)"/><path d="M150.89 315.896C150.542 315.896 150.256 315.78 150.031 315.548 149.806 315.316 149.683 315.03 149.683 314.689L149.683 304.024C149.683 303.649 149.799 303.362 150.031 303.13 150.263 302.898 150.549 302.783 150.89 302.783 151.265 302.783 151.551 302.898 151.783 303.13 152.015 303.362 152.131 303.649 152.131 304.024L152.131 314.689C152.131 315.037 152.015 315.323 151.783 315.548 151.551 315.78 151.265 315.896 150.89 315.896ZM160.723 315.896C160.376 315.896 160.089 315.78 159.864 315.548 159.639 315.316 159.516 315.03 159.516 314.689L159.516 308.797C159.516 307.876 159.346 307.16 158.998 306.581 158.65 306.008 158.221 305.572 157.648 305.285 157.075 304.999 156.441 304.856 155.691 304.856 155.029 304.856 154.422 304.999 153.877 305.258 153.331 305.517 152.902 305.892 152.581 306.349 152.268 306.806 152.09 307.324 152.09 307.904L150.597 307.904C150.597 306.895 150.829 306.008 151.313 305.203 151.797 304.399 152.465 303.792 153.325 303.335 154.156 302.878 155.104 302.646 156.168 302.646 157.259 302.646 158.241 302.878 159.128 303.362 159.987 303.819 160.683 304.515 161.201 305.435 161.719 306.356 161.951 307.474 161.951 308.77L161.951 314.662C161.951 315.009 161.835 315.296 161.603 315.521 161.385 315.78 161.064 315.896 160.723 315.896Z" stroke="#3A5158" stroke-width="0.0681927" stroke-miterlimit="10" fill="#3A5158" transform="matrix(1 0 0 1.00247 568 82.0287)"/><path d="M171.962 315.978C170.843 315.978 169.807 315.807 168.859 315.46 167.911 315.112 167.161 314.682 166.643 314.164 166.411 313.905 166.295 313.618 166.356 313.305 166.383 312.991 166.561 312.698 166.813 312.5 167.127 312.241 167.447 312.125 167.761 312.186 168.075 312.214 168.334 312.357 168.566 312.616 168.852 312.93 169.282 313.189 169.861 313.475 170.468 313.734 171.13 313.877 171.873 313.877 172.794 313.877 173.51 313.734 174.001 313.421 174.492 313.134 174.751 312.732 174.751 312.241 174.751 311.75 174.546 311.348 174.062 311.007 173.605 310.659 172.739 310.372 171.477 310.147 169.868 309.834 168.688 309.343 167.972 308.708 167.256 308.074 166.881 307.297 166.881 306.349 166.881 305.544 167.113 304.856 167.597 304.337 168.088 303.792 168.688 303.417 169.438 303.13 170.189 302.871 170.959 302.728 171.798 302.728 172.862 302.728 173.782 302.898 174.587 303.246 175.392 303.594 176.053 304.051 176.51 304.624 176.742 304.883 176.824 305.142 176.824 305.428 176.796 305.715 176.681 305.947 176.421 306.144 176.162 306.315 175.849 306.376 175.501 306.315 175.153 306.26 174.867 306.11 174.607 305.885 174.205 305.51 173.776 305.251 173.312 305.108 172.855 304.965 172.303 304.876 171.702 304.876 170.986 304.876 170.407 304.992 169.923 305.251 169.432 305.483 169.207 305.858 169.207 306.315 169.207 306.601 169.295 306.86 169.438 307.092 169.582 307.324 169.895 307.522 170.332 307.726 170.789 307.897 171.423 308.102 172.289 308.272 173.496 308.504 174.417 308.818 175.133 309.193 175.849 309.568 176.312 309.997 176.626 310.488 176.94 310.979 177.083 311.525 177.083 312.186 177.083 312.936 176.878 313.598 176.51 314.171 176.135 314.743 175.535 315.234 174.785 315.582 174.035 315.807 173.087 315.978 171.962 315.978Z" stroke="#3A5158" stroke-width="0.0681927" stroke-miterlimit="10" fill="#3A5158" transform="matrix(1 0 0 1.00247 568 82.0287)"/></g></svg>